<svg width="137" height="24" viewBox="0 0 137 24" fill="none" xmlns="http://www.w3.org/2000/svg"><path fill-rule="evenodd" clip-rule="evenodd" d="M21.893 0l-5.796 6.467L10.31.008 0 11.513l4.418 4.93 5.823-6.497 5.799 6.472 5.825-6.5 2.338 2.615-5.822 6.497L22.834 24 39.88 4.98 35.425.01l-6.762 7.545L21.893 0zm46.801 6.269L65.26 11.15l-3.598-4.88h-2.56l5.036 6.807v4.136h2.183v-4.138l4.897-6.805h-2.524zm11.82 4.918v1.922h3.714v2.129c-.813.233-1.796.365-2.726.365-2.853 0-4.557-1.367-4.557-3.656 0-2.187 1.831-3.656 4.557-3.656 1.3 0 2.655.272 3.917.788l.201.082.672-1.822-.181-.072a12.82 12.82 0 00-4.758-.93c-3.989 0-6.668 2.293-6.668 5.707 0 3.452 2.517 5.514 6.734 5.514 1.663 0 3.574-.38 4.868-.967l.117-.053v-5.351h-5.89zm39.383 4.288v-2.687h5.496v-1.922h-5.496V8.34h6.062V6.417h-8.239v10.98h8.339v-1.922h-6.162zm12.686-4.568c-1.697-.231-2.727-.438-2.727-1.353 0-.802.854-1.263 2.343-1.263 1.564 0 2.914.57 3.422.815l.185.09.858-1.696-.165-.093c-1.197-.67-2.849-1.07-4.417-1.07-2.809 0-4.486 1.239-4.486 3.313 0 1 .355 1.736 1.084 2.249.895.628 2.198.805 3.348.96 1.631.221 2.63.4 2.63 1.256 0 1.343-1.965 1.488-2.809 1.488-1.264 0-2.433-.309-3.474-.919l-.182-.106-.998 1.705.161.102c.845.535 2.308 1.172 4.476 1.172 3.09 0 5.086-1.382 5.086-3.522 0-2.536-2.404-2.864-4.335-3.128zm-85.509 6.488l2.211-6.069 3.735 6.03 3.734-6.03 2.212 6.069h2.274l-3.976-11.05-4.244 6.876-4.245-6.877-3.976 11.05h2.275zm46.372-6.604l1.686 2.915h-3.368l1.682-2.915zm-3.823 6.607l1.17-2.017 5.305-.003 1.169 2.02h2.463l-6.285-11.05-6.287 11.05h2.465zm12.902 0l2.211-6.244 3.735 6.205 3.735-6.205 2.211 6.244h2.274l-3.975-11.05-4.245 6.877-4.245-6.877-3.975 11.05h2.274zm-29.471-1.716l-1.945 1.876-1.944-1.876 1.944-1.875 1.945 1.875z" fill="#F5F5F7"/></svg>